# xmcd CD database file
# Copyright (C) 1993-1996 Ti Kan
#
# Track frame offsets:
#  150
#  17850
#  36477
#  51256
#  71141
#  88086
#  107475
#  129168
#  144536
#  159654
#  178151
#  193178
#
# Disc length: 2815 seconds
#
# Revision: 1
# Processed by: cddbd v1.5.1PL0 Copyright (c) Steve Scherf et al.
# Submitted via: Advanced CD Ripper Pro 2.0
#
DISCID=af0afd0c
DTITLE=Massimo Ranieri - 1
DYEAR=1998
DGENRE=Folk
TTITLE0=Track01
TTITLE1=Track02
TTITLE2=Track03
TTITLE3=Track04
TTITLE4=Track05
TTITLE5=Track06
TTITLE6=Track07
TTITLE7=Track08
TTITLE8=Track09
TTITLE9=Track10
TTITLE10=Track11
TTITLE11=Track12
EXTD=
EXTT0=
EXTT1=
EXTT2=
EXTT3=
EXTT4=
EXTT5=
EXTT6=
EXTT7=
EXTT8=
EXTT9=
EXTT10=
EXTT11=
PLAYORDER=
